HIERARCHY
ROOT Hips
{
 OFFSET 0.000000 0.000000 0.000000
 CHANNELS 6 Xposition Yposition Zposition Yrotation Xrotation Zrotation
 JOINT Chest
 {
  OFFSET 0.000000 9.585900 0.002600
  CHANNELS 3 Yrotation Xrotation Zrotation
  JOINT Chest2
  {
   OFFSET 0.000000 9.601200 -0.005300
   CHANNELS 3 Yrotation Xrotation Zrotation
   JOINT Chest3
   {
    OFFSET 0.000000 9.561800 0.000000
    CHANNELS 3 Yrotation Xrotation Zrotation
    JOINT Chest4
    {
     OFFSET 0.000000 9.552100 0.000000
     CHANNELS 3 Yrotation Xrotation Zrotation
     JOINT Neck
     {
      OFFSET 0.000000 14.453000 0.000000
      CHANNELS 3 Yrotation Xrotation Zrotation
      JOINT Head
      {
       OFFSET 0.000000 8.936500 -0.011300
       CHANNELS 3 Yrotation Xrotation Zrotation
       End Site
       {
        OFFSET 0.000000 17.073600 -0.006000
       }
      }
     }
     JOINT RightCollar
     {
      OFFSET -2.921100 9.558500 0.000000
      CHANNELS 3 Yrotation Xrotation Zrotation
      JOINT RightShoulder
      {
       OFFSET -13.519700 0.000000 0.000000
       CHANNELS 3 Yrotation Xrotation Zrotation
       JOINT RightElbow
       {
        OFFSET 0.000000 -29.696600 0.000000
        CHANNELS 3 Yrotation Xrotation Zrotation
        JOINT RightWrist
        {
         OFFSET 0.000000 -24.004700 0.000000
         CHANNELS 3 Yrotation Xrotation Zrotation
         End Site
         {
          OFFSET 0.000000 -17.728500 0.000000
         }
        }
       }
      }
     }
     JOINT LeftCollar
     {
      OFFSET 2.921100 9.558500 0.000000
      CHANNELS 3 Yrotation Xrotation Zrotation
      JOINT LeftShoulder
      {
       OFFSET 13.519700 0.000000 0.000000
       CHANNELS 3 Yrotation Xrotation Zrotation
       JOINT LeftElbow
       {
        OFFSET 0.000000 -29.696600 0.000000
        CHANNELS 3 Yrotation Xrotation Zrotation
        JOINT LeftWrist
        {
         OFFSET 0.000000 -24.004700 0.000000
         CHANNELS 3 Yrotation Xrotation Zrotation
         End Site
         {
          OFFSET 0.000000 -17.728500 0.000000
         }
        }
       }
      }
     }
    }
   }
  }
 }
 JOINT RightHip
 {
  OFFSET -7.771700 -0.012900 -0.001300
  CHANNELS 3 Yrotation Xrotation Zrotation
  JOINT RightKnee
  {
   OFFSET 0.000000 -40.869800 0.001200
   CHANNELS 3 Yrotation Xrotation Zrotation
   JOINT RightAnkle
   {
    OFFSET 0.000000 -39.717900 0.002100
    CHANNELS 3 Yrotation Xrotation Zrotation
    JOINT RightToe
    {
     OFFSET 0.000000 -4.965400 11.033500
     CHANNELS 3 Yrotation Xrotation Zrotation
     End Site
     {
      OFFSET 0.000000 -1.423100 5.872300
     }
    }
   }
  }
 }
 JOINT LeftHip
 {
  OFFSET 7.771700 -0.012900 -0.001300
  CHANNELS 3 Yrotation Xrotation Zrotation
  JOINT LeftKnee
  {
   OFFSET 0.000000 -40.869800 0.001200
   CHANNELS 3 Yrotation Xrotation Zrotation
   JOINT LeftAnkle
   {
    OFFSET 0.000000 -39.717900 0.002100
    CHANNELS 3 Yrotation Xrotation Zrotation
    JOINT LeftToe
    {
     OFFSET 0.000000 -4.965400 11.033500
     CHANNELS 3 Yrotation Xrotation Zrotation
     End Site
     {
      OFFSET 0.000000 -1.423100 5.872300
     }
    }
   }
  }
 }
}
MOTION
Frames: 11
Frame Time: 0.008333
0.000000 85.388000 0.000000 0.000000 -5.767877 0.000000 0.000000 11.653817 0.000000 0.000000 -5.885947 0.000000 0.000000 -0.000000 0.000000 0.000000 -0.000000 0.000000 0.000000 12.528835 0.000000 0.000000 0.711642 0.000000 0.000000 -0.000000 0.000000 0.000000 0.000000 -90.000000 0.000000 -2.309062 0.000000 0.000000 2.309062 0.000000 0.000000 -0.000000 0.000000 0.000000 -0.000000 90.000000 0.000000 -2.309062 0.000000 0.000000 2.309062 0.000000 0.000000 8.520406 0.000000 0.000000 1.905762 0.000000 -0.000000 -4.658285 0.000000 0.000000 -0.000000 0.000000 0.000000 8.520406 0.000000 0.000000 1.905762 0.000000 -0.000000 -4.658285 0.000000 0.000000 -0.000000 0.000000
-42.467021 46.694451 14.038945 179.027327 -30.256914 -3.908708 -0.386893 16.558663 1.669246 -0.057082 1.680919 0.206720 -0.158074 2.859693 0.348897 -0.496488 14.653333 1.750307 -11.842212 19.710958 1.627686 -22.070184 1.899106 6.437013 -1.547332 3.279439 -2.493954 -0.828008 -10.433300 -15.825304 -83.544770 -66.428863 127.142662 0.693188 2.644302 -17.763610 0.282465 -0.222784 1.111316 -1.083932 -2.509744 15.267383 79.498431 -68.326737 -119.222830 -4.596024 10.401777 2.457504 -1.110312 -56.867784 -8.016046 -145.634307 79.465744 -137.510619 -9.000744 -11.327774 -4.497592 0.038198 -0.343943 0.050684 -1.392954 -58.606450 10.148447 -107.253723 82.812554 -111.677390 4.436032 -5.701950 6.270060 0.103949 0.296512 0.026157
-42.469614 46.694266 14.036619 179.016326 -30.231621 -3.903850 -0.397495 16.548280 1.666328 -0.078904 1.698714 0.207920 -0.153780 2.854719 0.347446 -0.543001 14.669976 1.745277 -12.151888 19.641230 1.614949 -22.637696 1.816932 6.510488 -1.550553 3.285888 -2.510205 -0.983824 -10.445417 -15.848640 -83.044800 -65.730016 126.745581 0.511534 2.437114 -16.962669 0.276865 -0.190255 1.085944 -1.039200 -2.433946 15.158102 79.274260 -68.232566 -119.000016 -4.534885 10.286597 2.383484 -1.130164 -56.897321 -8.004178 -145.654238 79.462517 -137.533768 -8.998569 -11.335929 -4.514891 0.040731 -0.348078 0.044302 -1.397741 -58.626994 10.157253 -107.271126 82.819654 -111.699498 4.433336 -5.710624 6.265064 0.097444 0.301299 0.033566
-42.471818 46.694084 14.034214 179.002573 -30.199605 -3.905807 -0.479251 16.583629 1.653010 -0.072690 1.692959 0.207335 -0.093538 2.813391 0.343273 -0.606052 14.693816 1.743572 -12.434829 19.580135 1.600255 -23.155227 1.746945 6.571801 -1.552147 3.293336 -2.525675 -1.164484 -10.456264 -15.860008 -82.773273 -65.062597 126.571596 0.304659 2.178407 -16.132765 0.274828 -0.158789 1.059508 -0.988344 -2.349624 15.054810 78.961467 -68.099294 -118.716028 -4.460908 10.168357 2.297620 -1.164109 -56.931926 -7.978092 -145.682271 79.462865 -137.565420 -8.984407 -11.344648 -4.536193 0.037879 -0.346399 0.048497 -1.416465 -58.655662 10.187032 -107.311524 82.829674 -111.746375 4.423573 -5.716074 6.257907 0.100342 0.302880 0.043119
-42.476392 46.695419 14.028935 178.998847 -30.180417 -3.904221 -0.516714 16.589610 1.643236 -0.104262 1.710847 0.208678 -0.082740 2.810466 0.341640 -0.643197 14.692949 1.741660 -12.687028 19.528140 1.582264 -23.614970 1.688692 6.617172 -1.549967 3.301165 -2.541709 -1.369421 -10.464931 -15.852214 -82.733856 -64.459596 126.608955 0.084047 1.863498 -15.286337 0.299728 -0.143723 1.030030 -0.960020 -2.243272 14.961428 78.555193 -67.914858 -118.362484 -4.386022 10.044527 2.202040 -1.206723 -56.945885 -7.975057 -145.776857 79.479657 -137.671049 -8.942988 -11.357602 -4.552729 0.015909 -0.340726 0.042448 -1.422279 -58.672352 10.194290 -107.383345 82.841896 -111.822408 4.405598 -5.714650 6.251762 0.116774 0.297146 0.051876
-42.481399 46.696800 14.023833 178.995988 -30.156490 -3.905961 -0.528271 16.573713 1.643281 -0.153699 1.734776 0.211282 -0.136238 2.837098 0.344633 -0.633216 14.671109 1.734109 -12.905944 19.483091 1.561039 -24.012459 1.637624 6.646460 -1.543357 3.305676 -2.560893 -1.596226 -10.473972 -15.819942 -82.901297 -63.927997 126.824045 -0.129983 1.491548 -14.434498 0.303882 -0.124964 1.001107 -0.910520 -2.137836 14.875047 78.064093 -67.667768 -117.945855 -4.318371 9.914738 2.094146 -1.237212 -56.965408 -7.969836 -145.848035 79.493636 -137.750849 -8.920911 -11.364056 -4.559271 0.007865 -0.342589 0.028305 -1.433257 -58.693901 10.207070 -107.422112 82.847208 -111.865768 4.391769 -5.711667 6.249170 0.118783 0.290996 0.055900
-42.484837 46.696735 14.022019 178.966468 -30.110951 -3.908783 -0.559783 16.559081 1.648339 -0.163932 1.734677 0.212362 -0.160419 2.847417 0.346385 -0.652107 14.667223 1.729455 -13.089952 19.442372 1.538981 -24.345743 1.588955 6.664058 -1.537240 3.305478 -2.583871 -1.835716 -10.485877 -15.767465 -83.253264 -63.459989 127.187538 -0.326785 1.071776 -13.580389 0.288388 -0.104917 0.973034 -0.849333 -2.034998 14.800562 77.489976 -67.348032 -117.470053 -4.254699 9.768544 1.962369 -1.263132 -57.008801 -7.936796 -145.901115 79.507120 -137.802944 -8.912162 -11.377002 -4.570649 0.004097 -0.332062 0.024691 -1.446390 -58.737379 10.252228 -107.441660 82.847183 -111.890118 4.372532 -5.715360 6.246897 0.128454 0.291842 0.060450
-42.488669 46.698845 14.016991 178.945350 -30.087959 -3.916975 -0.605710 16.567363 1.652304 -0.168405 1.732064 0.213035 -0.167282 2.849912 0.346946 -0.687503 14.672087 1.727733 -13.238658 19.404980 1.517202 -24.614506 1.540734 6.672018 -1.533915 3.303530 -2.607440 -2.081909 -10.499273 -15.704718 -83.755241 -63.039126 127.666367 -0.502731 0.617940 -12.723352 0.300345 -0.102924 0.944308 -0.829921 -1.916734 14.741451 76.820422 -66.948064 -116.923817 -4.184391 9.591542 1.786557 -1.285407 -57.029855 -7.905146 -145.933132 79.514453 -137.828242 -8.922785 -11.377796 -4.585417 0.012886 -0.336723 0.025511 -1.464781 -58.758314 10.295526 -107.492810 82.842701 -111.949706 4.371961 -5.721018 6.247622 0.129945 0.287251 0.064496
-42.493274 46.703243 14.008514 178.916567 -30.091289 -3.919374 -0.642659 16.596581 1.656178 -0.176441 1.731169 0.209837 -0.173899 2.851994 0.347633 -0.721277 14.676055 1.726915 -13.352617 19.371532 1.495100 -24.819535 1.493890 6.669312 -1.531749 3.302180 -2.630489 -2.339088 -10.510551 -15.633141 -84.354153 -62.640673 128.221714 -0.656484 0.146584 -11.860099 0.360597 -0.113962 0.912760 -0.871301 -1.788539 14.700616 76.042221 -66.457757 -116.299490 -4.097965 9.370662 1.543853 -1.292807 -57.025171 -7.879047 -145.949908 79.518325 -137.838421 -8.942768 -11.371312 -4.593307 0.026043 -0.348634 0.024974 -1.465363 -58.752541 10.328188 -107.611270 82.824864 -112.082262 4.394764 -5.742612 6.265292 0.116336 0.282437 0.058577
-42.497223 46.705963 14.003583 178.880942 -30.073750 -3.924995 -0.678627 16.602579 1.661038 -0.181112 1.730488 0.208752 -0.179912 2.853391 0.348128 -0.752273 14.678523 1.725441 -13.433005 19.344150 1.473467 -24.963019 1.452601 6.657397 -1.531317 3.300931 -2.652416 -2.614430 -10.519638 -15.548565 -84.983459 -62.238670 128.800808 -0.796344 -0.316914 -10.971567 0.418896 -0.121842 0.885070 -0.916953 -1.668170 14.674670 75.148317 -65.861156 -115.601519 -3.980676 9.095761 1.210950 -1.303977 -57.034560 -7.853079 -146.012084 79.539250 -137.886683 -8.940038 -11.378637 -4.598477 0.032357 -0.343072 0.013901 -1.468834 -58.768825 10.366263 -107.653087 82.806529 -112.126188 4.417225 -5.756598 6.270488 0.108753 0.280518 0.056304
-42.500093 46.707607 14.001203 178.815137 -30.043901 -3.923949 -0.686912 16.592543 1.673975 -0.148679 1.720228 0.208131 -0.223765 2.864525 0.348500 -0.781123 14.678720 1.722918 -13.481199 19.324265 1.452729 -25.047299 1.419775 6.636966 -1.535659 3.302342 -2.671447 -2.913826 -10.533978 -15.451580 -85.554848 -61.804751 129.330673 -0.938700 -0.747930 -10.036197 0.424354 -0.120409 0.867719 -0.908484 -1.564199 14.655928 74.123836 -65.139716 -114.826360 -3.811225 8.763291 0.768018 -1.298359 -57.065732 -7.799976 -145.980260 79.544287 -137.843121 -8.945216 -11.376685 -4.607322 0.045526 -0.340678 0.013988 -1.455967 -58.799935 10.415126 -107.694860 82.782456 -112.165116 4.446530 -5.772062 6.275917 0.106386 0.278588 0.049119
